<?xml version="1.0" ?><svg id="Layer_1" style="enable-background:new 0 0 128 128;" version="1.1" viewBox="0 0 128 128" xml:space="preserve" xmlns="http://www.w3.org/2000/svg" xmlns:xlink="http://www.w3.org/1999/xlink"><style type="text/css">
	.st0{fill-rule:evenodd;clip-rule:evenodd;fill:#7ACED7;}
	.st1{fill-rule:evenodd;clip-rule:evenodd;}
</style><path class="st0" d="M81.2,58.2L56.6,82.9L45.2,71.5l24.6-24.6c3.1-3.1,8.2-3.1,11.3,0C84.3,50,84.3,55.1,81.2,58.2z" id="XMLID_8_"/><path class="st1" d="M84,61.1l-63.5,63.5c-4.7,4.7-12.3,4.7-17,0c-4.7-4.7-4.7-12.3,0-17L67,44.1  c4.7-4.7,12.3-4.7,17,0C88.7,48.8,88.7,56.4,84,61.1L84,61.1z M84,2.1v22.4c0,1.1-0.9,2-2,2c-1.1,0-2-0.9-2-2V2.1c0-1.1,0.9-2,2-2  C83.1,0.1,84,1,84,2.1L84,2.1z M62.1,30.6L46.3,14.8c-0.8-0.8-0.8-2,0-2.8s2-0.8,2.8,0l15.8,15.8c0.8,0.8,0.8,2,0,2.8  S62.9,31.4,62.1,30.6L62.1,30.6z M111.9,80.4L96.1,64.6c-0.8-0.8-0.8-2,0-2.8s2-0.8,2.8,0l15.8,15.8c0.8,0.8,0.8,2,0,2.8  S112.7,81.2,111.9,80.4L111.9,80.4z M126,47.5h-22.4c-1.1,0-2-0.9-2-2s0.9-2,2-2H126c1.1,0,2,0.9,2,2S127.1,47.5,126,47.5L126,47.5z   M116,14.3l-15.8,15.8c-0.8,0.8-2,0.8-2.8,0c-0.8-0.8-0.8-2,0-2.8l15.8-15.8c0.8-0.8,2-0.8,2.8,0C116.8,12.3,116.8,13.5,116,14.3  L116,14.3z M81.2,58.2c3.1-3.1,3.1-8.2,0-11.3c-3.1-3.1-8.2-3.1-11.3,0L45.2,71.5l11.3,11.3L81.2,58.2z" id="XMLID_10_"/></svg>